REM MD5 219ef1d479e4d52545a3bf27fe19241b
FILE "Himitsu Kessha Q (Japan).bin" BINARY
  TRACK 01 MODE2/2352
    INDEX 01 00:00:00
  TRACK 02 AUDIO
    INDEX 00 24:27:27
    INDEX 01 24:29:27
  TRACK 03 AUDIO
    INDEX 00 26:29:28
    INDEX 01 26:31:28
  TRACK 04 AUDIO
    INDEX 00 28:30:14
    INDEX 01 28:32:14
  TRACK 05 AUDIO
    INDEX 00 31:03:30
    INDEX 01 31:05:30
REM LEADOUT 35:16:47
